<?xml version="1.0" encoding="UTF-8"?>
<svg id="Layer_2" data-name="Layer 2" xmlns="http://www.w3.org/2000/svg" viewBox="0 0 125.19 47.55">
  <g id="Layer_1-2" data-name="Layer 1">
    <g>
      <path d="m119.72,47.55c-2.24,0-4.28-1.36-5.08-3.44-1.41-3.66-3.27-7.14-5.5-10.37-.8-1.15-1.65-2.28-2.54-3.36-3.6-4.38-7.94-8.21-12.86-11.31-.2-.14-.4-.26-.61-.39-2.47-1.52-5.08-2.86-7.82-4.01-.74-1.51-1.16-3.64-1.6-6.75-.34,2.43-.67,4.27-1.16,5.68-6.23-2.25-13.01-3.48-20.1-3.48-6.68,0-13.09,1.09-19.02,3.1-.1.03-.2.07-.29.1-11.9,4.08-21.86,11.83-28.28,21.77-1.27,1.96.11,4.54,2.44,4.54h18.32c1.99,0,3.76,1.41,4.04,3.38.35,2.45-1.54,4.55-3.92,4.55H6.79c-3.75,0-6.79-3.04-6.79-6.79,0-.33.12-.84.26-1.13h0C8.61,21.74,24.43,8.05,43.72,2.59c.04,0,.07-.02.11-.03C49.38,1,55.21.12,61.24.01c.4,0,.8-.01,1.21-.01.32,0,.65,0,.98,0,19.8.28,37.58,8.96,49.92,22.63.47.51.93,1.04,1.38,1.58,3.98,4.67,7.33,9.89,9.94,15.53,1.69,3.64-.94,7.81-4.95,7.81Z"/>
      <path d="m63.43,0c-.33,0-.66,0-.98,0-.41,0-.81,0-1.21.01-6.02.1-11.85.98-17.41,2.55-.04,0-.07.02-.11.03-.47,1.94-.71,3.96-.71,6.01,0,.83.04,1.65.12,2.45.07.73.16,1.45.29,2.16,2.67,14.87,18.13,26.28,36.78,26.28,10.31,0,19.65-3.49,26.38-9.12.89-.75,1.74-1.53,2.54-2.35,1.62-1.66,3.03-3.47,4.21-5.39C101,8.97,83.23.29,63.43,0Zm20.28,29.9c-1.25-8.74-2.25-9.75-10.99-10.99,6.3-.9,8.58-1.68,9.83-5.32.48-1.41.81-3.25,1.16-5.68.44,3.11.86,5.24,1.6,6.75,1.21,2.47,3.3,3.29,7.82,4.01.5.08,1.03.16,1.58.24-.34.05-.66.1-.97.15-7.85,1.18-8.83,2.44-10.02,10.84Z"/>
    </g>
  </g>
</svg>