<?xml version="1.0" encoding="UTF-8"?>
<svg id="Layer_2" data-name="Layer 2" xmlns="http://www.w3.org/2000/svg" viewBox="0 0 120.17 45.64">
  <defs>
    <style>
      .cls-1 {
        fill: #fff;
      }
    </style>
  </defs>
  <g id="Layer_1-2" data-name="Layer 1">
    <g>
      <path class="cls-1" d="m114.91,45.64c-2.15,0-4.11-1.3-4.88-3.31-1.36-3.52-3.14-6.86-5.28-9.95-.77-1.1-1.58-2.19-2.44-3.23-3.45-4.21-7.62-7.88-12.34-10.86-.19-.13-.39-.25-.58-.37-2.37-1.46-4.88-2.75-7.5-3.85-.71-1.45-1.11-3.5-1.53-6.48-.33,2.33-.65,4.1-1.11,5.45-5.98-2.16-12.49-3.34-19.3-3.34-6.41,0-12.57,1.05-18.26,2.97-.1.03-.19.06-.28.1-11.42,3.92-20.99,11.36-27.15,20.89-1.22,1.88.11,4.35,2.34,4.35h17.58c1.91,0,3.61,1.36,3.88,3.24.34,2.35-1.48,4.37-3.76,4.37H6.52c-3.6,0-6.52-2.92-6.52-6.52,0-.32.11-.8.25-1.08h0C8.26,20.87,23.45,7.73,41.96,2.49c.04,0,.07-.02.11-.03C47.4.96,53,.11,58.78.01c.39,0,.77-.01,1.16-.01.31,0,.63,0,.94,0,19.01.27,36.07,8.6,47.91,21.72.45.49.89,1,1.33,1.51,3.82,4.49,7.04,9.49,9.54,14.9,1.62,3.5-.9,7.5-4.75,7.5Z"/>
      <path class="cls-1" d="m60.88,0c-.32,0-.63,0-.94,0-.39,0-.77,0-1.16.01-5.78.1-11.38.94-16.71,2.45-.04,0-.07.02-.11.03-.45,1.86-.68,3.8-.68,5.77,0,.79.04,1.58.12,2.36.06.7.15,1.39.28,2.07,2.57,14.28,17.4,25.23,35.3,25.23,9.89,0,18.86-3.35,25.32-8.76.86-.72,1.67-1.47,2.44-2.26,1.55-1.6,2.91-3.33,4.04-5.17C96.95,8.61,79.89.27,60.88,0Zm19.47,28.7c-1.2-8.39-2.16-9.36-10.55-10.55,6.05-.86,8.24-1.61,9.44-5.11.46-1.35.78-3.12,1.11-5.45.42,2.98.82,5.03,1.53,6.48,1.16,2.37,3.16,3.16,7.5,3.85.48.08.98.15,1.52.23-.32.05-.63.09-.94.14-7.54,1.13-8.47,2.34-9.62,10.41Z"/>
    </g>
  </g>
</svg>