<svg width="38" height="38" viewBox="0 0 38 38" fill="none" xmlns="http://www.w3.org/2000/svg">
<g id="solar:eye-broken">
<g id="Group">
<path id="Vector" d="M14.25 7.06167C15.7861 6.5747 17.3885 6.329 19 6.33334C25.6215 6.33334 30.1276 10.2917 32.8145 13.7813C34.1604 15.5325 34.8333 16.4049 34.8333 19C34.8333 21.5967 34.1604 22.4691 32.8145 24.2187C30.1276 27.7083 25.6215 31.6667 19 31.6667C12.3785 31.6667 7.87229 27.7083 5.18538 24.2187C3.83954 22.4707 3.16663 21.5951 3.16663 19C3.16663 16.4033 3.83954 15.5309 5.18538 13.7813C6.00612 12.709 6.92009 11.7113 7.91663 10.7999" stroke="#222222" stroke-width="1.5" stroke-linecap="round"/>
<path id="Vector_2" d="M23.75 19C23.75 20.2598 23.2496 21.468 22.3588 22.3588C21.468 23.2496 20.2598 23.75 19 23.75C17.7402 23.75 16.532 23.2496 15.6412 22.3588C14.7504 21.468 14.25 20.2598 14.25 19C14.25 17.7402 14.7504 16.532 15.6412 15.6412C16.532 14.7504 17.7402 14.25 19 14.25C20.2598 14.25 21.468 14.7504 22.3588 15.6412C23.2496 16.532 23.75 17.7402 23.75 19Z" stroke="#222222" stroke-width="1.5"/>
</g>
</g>
</svg>
